<mxfile host="app.diagrams.net" modified="2023-04-11T21:25:13.833Z" agent="Mozilla/5.0 (Macintosh; Intel Mac OS X 10.15; rv:109.0) Gecko/20100101 Firefox/111.0" etag="Y7kjkHAd4x-nGPI31A5y" version="21.1.4" type="github" pages="3">
  <diagram id="LrehfFlCL_miOeviWvcQ" name="Daniel">
    <mxGraphModel dx="3060" dy="676" grid="1" gridSize="10" guides="1" tooltips="1" connect="1" arrows="1" fold="1" page="1" pageScale="1" pageWidth="1654" pageHeight="1169" math="0" shadow="0">
      <root>
        <mxCell id="0" />
        <mxCell id="1" parent="0" />
        <mxCell id="aVFXKrY4T-fykUxstb7x-1" style="edgeStyle=orthogonalEdgeStyle;rounded=0;orthogonalLoop=1;jettySize=auto;html=1;fontSize=12;" parent="1" source="aVFXKrY4T-fykUxstb7x-2" target="aVFXKrY4T-fykUxstb7x-7" edge="1">
          <mxGeometry relative="1" as="geometry">
            <mxPoint x="302" y="690" as="targetPoint" />
          </mxGeometry>
        </mxCell>
        <mxCell id="aVFXKrY4T-fykUxstb7x-2" value="Trending Users" style="swimlane;fontStyle=0;childLayout=stackLayout;horizontal=1;startSize=30;horizontalStack=0;resizeParent=1;resizeParentMax=0;resizeLast=0;collapsible=1;marginBottom=0;fontSize=12;" parent="1" vertex="1">
          <mxGeometry x="102" y="520" width="400" height="130" as="geometry" />
        </mxCell>
        <mxCell id="aVFXKrY4T-fykUxstb7x-3" value="High Follower/Following ratio (is followed more than being follower)" style="text;strokeColor=none;fillColor=none;align=left;verticalAlign=middle;spacingLeft=4;spacingRight=4;overflow=hidden;points=[[0,0.5],[1,0.5]];portConstraint=eastwest;rotatable=0;fontSize=12;" parent="aVFXKrY4T-fykUxstb7x-2" vertex="1">
          <mxGeometry y="30" width="400" height="50" as="geometry" />
        </mxCell>
        <mxCell id="aVFXKrY4T-fykUxstb7x-4" value="High value Posts (valued by community: likes, interaction by comments)" style="text;strokeColor=none;fillColor=none;align=left;verticalAlign=middle;spacingLeft=4;spacingRight=4;overflow=hidden;points=[[0,0.5],[1,0.5]];portConstraint=eastwest;rotatable=0;fontSize=12;" parent="aVFXKrY4T-fykUxstb7x-2" vertex="1">
          <mxGeometry y="80" width="400" height="50" as="geometry" />
        </mxCell>
        <mxCell id="aVFXKrY4T-fykUxstb7x-5" value="&lt;div&gt;&lt;b&gt;&lt;font style=&quot;font-size: 20px;&quot;&gt;NEAR Recommender System&lt;br&gt;&lt;/font&gt;&lt;/b&gt;&lt;/div&gt;&lt;div&gt;&lt;br&gt;&lt;/div&gt;&lt;div&gt;Starting with User Recommendation&lt;/div&gt;&lt;div&gt;&lt;br&gt;&lt;/div&gt;&lt;div&gt;Follow up system may include:&lt;/div&gt;&lt;div&gt;- Widgets (Apps),&lt;/div&gt;&lt;div&gt;- NFTs&lt;/div&gt;&lt;div&gt;&lt;br&gt;&lt;/div&gt;&lt;div&gt;Author(s): A Serrano, C Kuehner, D Herrmann&lt;br&gt;&lt;/div&gt;" style="text;html=1;strokeColor=none;fillColor=none;spacing=5;spacingTop=-20;whiteSpace=wrap;overflow=hidden;rounded=0;fontSize=12;" parent="1" vertex="1">
          <mxGeometry x="60" y="40" width="300" height="140" as="geometry" />
        </mxCell>
        <mxCell id="aVFXKrY4T-fykUxstb7x-6" value="" style="endArrow=classic;html=1;rounded=0;fontSize=12;entryX=0.5;entryY=0;entryDx=0;entryDy=0;exitX=0.5;exitY=1;exitDx=0;exitDy=0;startArrow=none;" parent="1" source="aVFXKrY4T-fykUxstb7x-50" target="aVFXKrY4T-fykUxstb7x-2" edge="1">
          <mxGeometry width="50" height="50" relative="1" as="geometry">
            <mxPoint x="402" y="420" as="sourcePoint" />
            <mxPoint x="452" y="370" as="targetPoint" />
          </mxGeometry>
        </mxCell>
        <mxCell id="aVFXKrY4T-fykUxstb7x-7" value="Trending Users by tags" style="swimlane;fontStyle=0;childLayout=stackLayout;horizontal=1;startSize=30;horizontalStack=0;resizeParent=1;resizeParentMax=0;resizeLast=0;collapsible=1;marginBottom=0;fontSize=12;" parent="1" vertex="1">
          <mxGeometry x="102" y="690" width="400" height="140" as="geometry" />
        </mxCell>
        <mxCell id="aVFXKrY4T-fykUxstb7x-8" value="if tags are given and intersecting, &#xa;&#xa;we can recommend trending Users to newcomers" style="text;strokeColor=none;fillColor=none;align=left;verticalAlign=middle;spacingLeft=4;spacingRight=4;overflow=hidden;points=[[0,0.5],[1,0.5]];portConstraint=eastwest;rotatable=0;fontSize=12;" parent="aVFXKrY4T-fykUxstb7x-7" vertex="1">
          <mxGeometry y="30" width="400" height="110" as="geometry" />
        </mxCell>
        <mxCell id="aVFXKrY4T-fykUxstb7x-9" value="Trending Users by topics" style="swimlane;fontStyle=0;childLayout=stackLayout;horizontal=1;startSize=30;horizontalStack=0;resizeParent=1;resizeParentMax=0;resizeLast=0;collapsible=1;marginBottom=0;fontSize=12;" parent="1" vertex="1">
          <mxGeometry x="562" y="690" width="400" height="140" as="geometry" />
        </mxCell>
        <mxCell id="aVFXKrY4T-fykUxstb7x-10" value="if history of interaction is given, &#xa;&#xa;we can recommend trending Users to active Users by tags&#xa;and topic of interest" style="text;strokeColor=none;fillColor=none;align=left;verticalAlign=middle;spacingLeft=4;spacingRight=4;overflow=hidden;points=[[0,0.5],[1,0.5]];portConstraint=eastwest;rotatable=0;fontSize=12;" parent="aVFXKrY4T-fykUxstb7x-9" vertex="1">
          <mxGeometry y="30" width="400" height="110" as="geometry" />
        </mxCell>
        <mxCell id="aVFXKrY4T-fykUxstb7x-11" style="edgeStyle=orthogonalEdgeStyle;rounded=0;orthogonalLoop=1;jettySize=auto;html=1;fontSize=12;" parent="1" source="aVFXKrY4T-fykUxstb7x-8" target="aVFXKrY4T-fykUxstb7x-10" edge="1">
          <mxGeometry relative="1" as="geometry" />
        </mxCell>
        <mxCell id="aVFXKrY4T-fykUxstb7x-12" style="edgeStyle=orthogonalEdgeStyle;rounded=0;orthogonalLoop=1;jettySize=auto;html=1;fontSize=12;" parent="1" source="aVFXKrY4T-fykUxstb7x-44" target="aVFXKrY4T-fykUxstb7x-9" edge="1">
          <mxGeometry relative="1" as="geometry" />
        </mxCell>
        <mxCell id="aVFXKrY4T-fykUxstb7x-13" value="Active Learning system" style="swimlane;fontStyle=0;childLayout=stackLayout;horizontal=1;startSize=30;horizontalStack=0;resizeParent=1;resizeParentMax=0;resizeLast=0;collapsible=1;marginBottom=0;fontSize=12;shadow=0;sketch=0;swimlaneLine=1;glass=0;" parent="1" vertex="1">
          <mxGeometry x="104" y="920" width="398" height="80" as="geometry" />
        </mxCell>
        <mxCell id="aVFXKrY4T-fykUxstb7x-14" value="Competing agents to rate the conversion of &#xa;&#xa;recommended items/Users&#xa;" style="text;strokeColor=none;fillColor=none;align=left;verticalAlign=middle;spacingLeft=4;spacingRight=4;overflow=hidden;points=[[0,0.5],[1,0.5]];portConstraint=eastwest;rotatable=0;fontSize=12;" parent="aVFXKrY4T-fykUxstb7x-13" vertex="1">
          <mxGeometry y="30" width="398" height="50" as="geometry" />
        </mxCell>
        <mxCell id="aVFXKrY4T-fykUxstb7x-15" style="edgeStyle=orthogonalEdgeStyle;rounded=0;orthogonalLoop=1;jettySize=auto;html=1;fontSize=12;" parent="aVFXKrY4T-fykUxstb7x-13" source="aVFXKrY4T-fykUxstb7x-13" target="aVFXKrY4T-fykUxstb7x-14" edge="1">
          <mxGeometry relative="1" as="geometry" />
        </mxCell>
        <mxCell id="aVFXKrY4T-fykUxstb7x-16" value="Methodologies" style="swimlane;fontStyle=1;childLayout=stackLayout;horizontal=1;startSize=30;horizontalStack=0;resizeParent=1;resizeParentMax=0;resizeLast=0;collapsible=1;marginBottom=0;fontSize=12;" parent="1" vertex="1">
          <mxGeometry x="970" y="340" width="368" height="180" as="geometry" />
        </mxCell>
        <mxCell id="aVFXKrY4T-fykUxstb7x-17" value="Image Recognition for image posts/ NFTs in collection" style="text;strokeColor=none;fillColor=none;align=left;verticalAlign=middle;spacingLeft=4;spacingRight=4;overflow=hidden;points=[[0,0.5],[1,0.5]];portConstraint=eastwest;rotatable=0;fontSize=12;" parent="aVFXKrY4T-fykUxstb7x-16" vertex="1">
          <mxGeometry y="30" width="368" height="30" as="geometry" />
        </mxCell>
        <mxCell id="aVFXKrY4T-fykUxstb7x-18" style="edgeStyle=orthogonalEdgeStyle;rounded=0;orthogonalLoop=1;jettySize=auto;html=1;entryX=0;entryY=0.5;entryDx=0;entryDy=0;fontSize=12;" parent="aVFXKrY4T-fykUxstb7x-16" source="aVFXKrY4T-fykUxstb7x-19" target="aVFXKrY4T-fykUxstb7x-22" edge="1">
          <mxGeometry relative="1" as="geometry" />
        </mxCell>
        <mxCell id="aVFXKrY4T-fykUxstb7x-19" value="NLP Sentiment/Topic Analysis for written posts" style="text;strokeColor=none;fillColor=none;align=left;verticalAlign=middle;spacingLeft=4;spacingRight=4;overflow=hidden;points=[[0,0.5],[1,0.5]];portConstraint=eastwest;rotatable=0;fontSize=12;" parent="aVFXKrY4T-fykUxstb7x-16" vertex="1">
          <mxGeometry y="60" width="368" height="30" as="geometry" />
        </mxCell>
        <mxCell id="aVFXKrY4T-fykUxstb7x-20" value="Widget classification/Games for widgets" style="text;strokeColor=none;fillColor=none;align=left;verticalAlign=middle;spacingLeft=4;spacingRight=4;overflow=hidden;points=[[0,0.5],[1,0.5]];portConstraint=eastwest;rotatable=0;fontSize=12;" parent="aVFXKrY4T-fykUxstb7x-16" vertex="1">
          <mxGeometry y="90" width="368" height="30" as="geometry" />
        </mxCell>
        <mxCell id="aVFXKrY4T-fykUxstb7x-21" value="Second degree graph relations" style="text;strokeColor=none;fillColor=none;align=left;verticalAlign=middle;spacingLeft=4;spacingRight=4;overflow=hidden;points=[[0,0.5],[1,0.5]];portConstraint=eastwest;rotatable=0;fontSize=12;" parent="aVFXKrY4T-fykUxstb7x-16" vertex="1">
          <mxGeometry y="120" width="368" height="30" as="geometry" />
        </mxCell>
        <mxCell id="aVFXKrY4T-fykUxstb7x-22" value="Take into account past experience / interaction with other users" style="text;strokeColor=none;fillColor=none;align=left;verticalAlign=middle;spacingLeft=4;spacingRight=4;overflow=hidden;points=[[0,0.5],[1,0.5]];portConstraint=eastwest;rotatable=0;fontSize=12;" parent="aVFXKrY4T-fykUxstb7x-16" vertex="1">
          <mxGeometry y="150" width="368" height="30" as="geometry" />
        </mxCell>
        <mxCell id="aVFXKrY4T-fykUxstb7x-23" style="edgeStyle=orthogonalEdgeStyle;rounded=0;orthogonalLoop=1;jettySize=auto;html=1;exitX=0.75;exitY=0;exitDx=0;exitDy=0;fontSize=12;" parent="1" source="aVFXKrY4T-fykUxstb7x-24" target="aVFXKrY4T-fykUxstb7x-66" edge="1">
          <mxGeometry relative="1" as="geometry">
            <mxPoint x="1600" y="470" as="targetPoint" />
          </mxGeometry>
        </mxCell>
        <mxCell id="aVFXKrY4T-fykUxstb7x-24" value="Topic Modelling" style="swimlane;fontStyle=0;childLayout=stackLayout;horizontal=1;startSize=30;horizontalStack=0;resizeParent=1;resizeParentMax=0;resizeLast=0;collapsible=1;marginBottom=0;fontSize=12;" parent="1" vertex="1">
          <mxGeometry x="1390" y="530" width="220" height="90" as="geometry" />
        </mxCell>
        <mxCell id="aVFXKrY4T-fykUxstb7x-25" value="matching/intersecting" style="text;strokeColor=none;fillColor=none;align=left;verticalAlign=middle;spacingLeft=4;spacingRight=4;overflow=hidden;points=[[0,0.5],[1,0.5]];portConstraint=eastwest;rotatable=0;fontSize=12;" parent="aVFXKrY4T-fykUxstb7x-24" vertex="1">
          <mxGeometry y="30" width="220" height="30" as="geometry" />
        </mxCell>
        <mxCell id="aVFXKrY4T-fykUxstb7x-26" value="recommending &quot;stronger&quot; profiles" style="text;strokeColor=none;fillColor=none;align=left;verticalAlign=middle;spacingLeft=4;spacingRight=4;overflow=hidden;points=[[0,0.5],[1,0.5]];portConstraint=eastwest;rotatable=0;fontSize=12;" parent="aVFXKrY4T-fykUxstb7x-24" vertex="1">
          <mxGeometry y="60" width="220" height="30" as="geometry" />
        </mxCell>
        <mxCell id="aVFXKrY4T-fykUxstb7x-27" style="edgeStyle=orthogonalEdgeStyle;rounded=0;orthogonalLoop=1;jettySize=auto;html=1;fontSize=12;" parent="1" source="aVFXKrY4T-fykUxstb7x-17" target="aVFXKrY4T-fykUxstb7x-24" edge="1">
          <mxGeometry relative="1" as="geometry" />
        </mxCell>
        <mxCell id="aVFXKrY4T-fykUxstb7x-28" style="edgeStyle=orthogonalEdgeStyle;rounded=0;orthogonalLoop=1;jettySize=auto;html=1;entryX=0.5;entryY=0;entryDx=0;entryDy=0;fontSize=12;" parent="1" source="aVFXKrY4T-fykUxstb7x-19" target="aVFXKrY4T-fykUxstb7x-24" edge="1">
          <mxGeometry relative="1" as="geometry" />
        </mxCell>
        <mxCell id="aVFXKrY4T-fykUxstb7x-29" style="edgeStyle=orthogonalEdgeStyle;rounded=0;orthogonalLoop=1;jettySize=auto;html=1;entryX=0.5;entryY=0;entryDx=0;entryDy=0;fontSize=12;" parent="1" source="aVFXKrY4T-fykUxstb7x-20" target="aVFXKrY4T-fykUxstb7x-24" edge="1">
          <mxGeometry relative="1" as="geometry" />
        </mxCell>
        <mxCell id="aVFXKrY4T-fykUxstb7x-30" value="" style="ellipse;whiteSpace=wrap;html=1;aspect=fixed;fontSize=12;fillColor=#99FF33;strokeColor=none;sketch=1;" parent="1" vertex="1">
          <mxGeometry x="1204.6171428571429" y="790" width="170" height="170" as="geometry" />
        </mxCell>
        <mxCell id="aVFXKrY4T-fykUxstb7x-31" value="" style="ellipse;whiteSpace=wrap;html=1;aspect=fixed;fontSize=12;fillColor=#FF6666;strokeColor=none;sketch=1;" parent="1" vertex="1">
          <mxGeometry x="1100" y="790" width="170" height="170" as="geometry" />
        </mxCell>
        <mxCell id="aVFXKrY4T-fykUxstb7x-32" value="updating on new data" style="text;strokeColor=none;fillColor=none;align=left;verticalAlign=middle;spacingLeft=4;spacingRight=4;overflow=hidden;points=[[0,0.5],[1,0.5]];portConstraint=eastwest;rotatable=0;fontSize=12;" parent="1" vertex="1">
          <mxGeometry x="1020" y="650" width="220" height="30" as="geometry" />
        </mxCell>
        <mxCell id="aVFXKrY4T-fykUxstb7x-33" value="" style="curved=1;endArrow=classic;html=1;rounded=0;fontSize=12;exitX=0.75;exitY=1;exitDx=0;exitDy=0;entryX=0.462;entryY=1.1;entryDx=0;entryDy=0;entryPerimeter=0;" parent="1" source="aVFXKrY4T-fykUxstb7x-44" target="aVFXKrY4T-fykUxstb7x-22" edge="1">
          <mxGeometry width="50" height="50" relative="1" as="geometry">
            <mxPoint x="1070" y="790" as="sourcePoint" />
            <mxPoint x="1165.88" y="522.01" as="targetPoint" />
            <Array as="points">
              <mxPoint x="1100" y="770" />
              <mxPoint x="1210" y="640" />
              <mxPoint x="920" y="640" />
              <mxPoint x="1250" y="780" />
            </Array>
          </mxGeometry>
        </mxCell>
        <mxCell id="aVFXKrY4T-fykUxstb7x-34" value="" style="curved=1;endArrow=classic;html=1;rounded=0;fontSize=12;exitX=0.523;exitY=0.967;exitDx=0;exitDy=0;exitPerimeter=0;entryX=1;entryY=0.5;entryDx=0;entryDy=0;" parent="1" source="aVFXKrY4T-fykUxstb7x-26" target="aVFXKrY4T-fykUxstb7x-10" edge="1">
          <mxGeometry width="50" height="50" relative="1" as="geometry">
            <mxPoint x="1070" y="790" as="sourcePoint" />
            <mxPoint x="1120" y="740" as="targetPoint" />
            <Array as="points">
              <mxPoint x="1300" y="970" />
              <mxPoint x="1070" y="740" />
            </Array>
          </mxGeometry>
        </mxCell>
        <mxCell id="aVFXKrY4T-fykUxstb7x-35" value="" style="ellipse;whiteSpace=wrap;html=1;aspect=fixed;sketch=1;fontSize=12;fillColor=#0000FF;" parent="1" vertex="1">
          <mxGeometry x="1200" y="835" width="80" height="80" as="geometry" />
        </mxCell>
        <mxCell id="aVFXKrY4T-fykUxstb7x-36" style="edgeStyle=orthogonalEdgeStyle;rounded=0;orthogonalLoop=1;jettySize=auto;html=1;exitX=0;exitY=0.5;exitDx=0;exitDy=0;entryX=1;entryY=0.25;entryDx=0;entryDy=0;fontSize=12;startArrow=none;" parent="1" source="aVFXKrY4T-fykUxstb7x-48" target="aVFXKrY4T-fykUxstb7x-13" edge="1">
          <mxGeometry relative="1" as="geometry" />
        </mxCell>
        <mxCell id="aVFXKrY4T-fykUxstb7x-37" style="edgeStyle=orthogonalEdgeStyle;rounded=0;orthogonalLoop=1;jettySize=auto;html=1;fontSize=12;" parent="1" source="aVFXKrY4T-fykUxstb7x-21" target="aVFXKrY4T-fykUxstb7x-38" edge="1">
          <mxGeometry relative="1" as="geometry">
            <mxPoint x="980" y="150" as="targetPoint" />
            <Array as="points">
              <mxPoint x="920" y="475" />
              <mxPoint x="920" y="300" />
              <mxPoint x="1090" y="300" />
            </Array>
          </mxGeometry>
        </mxCell>
        <mxCell id="aVFXKrY4T-fykUxstb7x-38" value="Graph Relations" style="swimlane;fontStyle=0;childLayout=stackLayout;horizontal=1;startSize=30;horizontalStack=0;resizeParent=1;resizeParentMax=0;resizeLast=0;collapsible=1;marginBottom=0;shadow=0;glass=0;sketch=0;fontSize=12;fillColor=none;" parent="1" vertex="1">
          <mxGeometry x="960" y="140" width="288" height="120" as="geometry" />
        </mxCell>
        <mxCell id="aVFXKrY4T-fykUxstb7x-39" value="because you followed X, see [Y1, Y2, ..., Yn]" style="text;strokeColor=none;fillColor=none;align=left;verticalAlign=middle;spacingLeft=4;spacingRight=4;overflow=hidden;points=[[0,0.5],[1,0.5]];portConstraint=eastwest;rotatable=0;shadow=0;glass=0;sketch=0;fontSize=12;" parent="aVFXKrY4T-fykUxstb7x-38" vertex="1">
          <mxGeometry y="30" width="288" height="30" as="geometry" />
        </mxCell>
        <mxCell id="aVFXKrY4T-fykUxstb7x-40" value="Collaborative Filtering" style="text;strokeColor=none;fillColor=none;align=left;verticalAlign=middle;spacingLeft=4;spacingRight=4;overflow=hidden;points=[[0,0.5],[1,0.5]];portConstraint=eastwest;rotatable=0;shadow=0;glass=0;sketch=0;fontSize=12;" parent="aVFXKrY4T-fykUxstb7x-38" vertex="1">
          <mxGeometry y="60" width="288" height="30" as="geometry" />
        </mxCell>
        <mxCell id="aVFXKrY4T-fykUxstb7x-41" value="Graph based Relation Modelling" style="text;strokeColor=none;fillColor=none;align=left;verticalAlign=middle;spacingLeft=4;spacingRight=4;overflow=hidden;points=[[0,0.5],[1,0.5]];portConstraint=eastwest;rotatable=0;shadow=0;glass=0;sketch=0;fontSize=12;" parent="aVFXKrY4T-fykUxstb7x-38" vertex="1">
          <mxGeometry y="90" width="288" height="30" as="geometry" />
        </mxCell>
        <mxCell id="aVFXKrY4T-fykUxstb7x-42" value="" style="group" parent="1" vertex="1" connectable="0">
          <mxGeometry x="652" y="260" width="230" height="340" as="geometry" />
        </mxCell>
        <mxCell id="aVFXKrY4T-fykUxstb7x-43" value="" style="rounded=0;whiteSpace=wrap;html=1;fontSize=12;" parent="aVFXKrY4T-fykUxstb7x-42" vertex="1">
          <mxGeometry width="230" height="340" as="geometry" />
        </mxCell>
        <mxCell id="aVFXKrY4T-fykUxstb7x-44" value="&lt;h1&gt;Active Users&lt;br&gt;&lt;/h1&gt;&lt;p&gt;Activity based recommendations depend on given User data and their interaction:&lt;/p&gt;&lt;p&gt;- username &lt;br&gt;&lt;/p&gt;&lt;p&gt;- tags&lt;/p&gt;&lt;p&gt;- description&lt;/p&gt;&lt;p&gt;- posts, including image recognition (topic)&lt;br&gt;&lt;/p&gt;&lt;p&gt;- comments&lt;/p&gt;&lt;p&gt;- NFT collection (topics)&lt;/p&gt;&lt;p&gt;- followers/following&lt;br&gt;&lt;/p&gt;The sparser the data given, the more generic the recommendation" style="text;html=1;strokeColor=none;fillColor=none;spacing=5;spacingTop=-20;whiteSpace=wrap;overflow=hidden;rounded=0;fontSize=12;" parent="aVFXKrY4T-fykUxstb7x-42" vertex="1">
          <mxGeometry width="220" height="340" as="geometry" />
        </mxCell>
        <mxCell id="aVFXKrY4T-fykUxstb7x-45" value="" style="group" parent="1" vertex="1" connectable="0">
          <mxGeometry x="102" y="200" width="230" height="240" as="geometry" />
        </mxCell>
        <mxCell id="aVFXKrY4T-fykUxstb7x-46" value="" style="rounded=0;whiteSpace=wrap;html=1;fontSize=12;" parent="aVFXKrY4T-fykUxstb7x-45" vertex="1">
          <mxGeometry width="230" height="240" as="geometry" />
        </mxCell>
        <mxCell id="aVFXKrY4T-fykUxstb7x-47" value="&lt;h1&gt;Onboarding&lt;/h1&gt;&lt;p&gt;Cold recommendations depend on given User data:&lt;/p&gt;&lt;p&gt;- username &lt;br&gt;&lt;/p&gt;&lt;p&gt;- tags&lt;/p&gt;&lt;p&gt;- description&lt;/p&gt;&lt;p&gt;&lt;br&gt;&lt;/p&gt;The sparser the data given, the more generic the recommendation" style="text;html=1;strokeColor=none;fillColor=none;spacing=5;spacingTop=-20;whiteSpace=wrap;overflow=hidden;rounded=0;fontSize=12;" parent="aVFXKrY4T-fykUxstb7x-45" vertex="1">
          <mxGeometry width="220" height="240" as="geometry" />
        </mxCell>
        <mxCell id="aVFXKrY4T-fykUxstb7x-48" value="active learning" style="text;html=1;strokeColor=none;fillColor=none;align=center;verticalAlign=middle;whiteSpace=wrap;rounded=0;shadow=0;glass=0;sketch=0;fontSize=12;" parent="1" vertex="1">
          <mxGeometry x="620" y="980" width="60" height="30" as="geometry" />
        </mxCell>
        <mxCell id="aVFXKrY4T-fykUxstb7x-49" value="" style="edgeStyle=orthogonalEdgeStyle;rounded=0;orthogonalLoop=1;jettySize=auto;html=1;exitX=0;exitY=0.5;exitDx=0;exitDy=0;entryX=1;entryY=0.25;entryDx=0;entryDy=0;fontSize=12;endArrow=none;" parent="1" source="aVFXKrY4T-fykUxstb7x-78" target="aVFXKrY4T-fykUxstb7x-48" edge="1">
          <mxGeometry relative="1" as="geometry">
            <mxPoint x="780" y="1015" as="sourcePoint" />
            <mxPoint x="502" y="940" as="targetPoint" />
          </mxGeometry>
        </mxCell>
        <mxCell id="aVFXKrY4T-fykUxstb7x-50" value="Global Recommendation" style="text;html=1;strokeColor=none;fillColor=none;align=center;verticalAlign=middle;whiteSpace=wrap;rounded=0;shadow=0;glass=0;sketch=0;fontSize=12;" parent="1" vertex="1">
          <mxGeometry x="272" y="460" width="60" height="30" as="geometry" />
        </mxCell>
        <mxCell id="aVFXKrY4T-fykUxstb7x-51" value="" style="endArrow=none;html=1;rounded=0;fontSize=12;entryX=0.5;entryY=0;entryDx=0;entryDy=0;exitX=0.5;exitY=1;exitDx=0;exitDy=0;" parent="1" source="aVFXKrY4T-fykUxstb7x-47" target="aVFXKrY4T-fykUxstb7x-50" edge="1">
          <mxGeometry width="50" height="50" relative="1" as="geometry">
            <mxPoint x="212" y="440" as="sourcePoint" />
            <mxPoint x="302" y="520" as="targetPoint" />
          </mxGeometry>
        </mxCell>
        <mxCell id="aVFXKrY4T-fykUxstb7x-52" style="edgeStyle=orthogonalEdgeStyle;rounded=0;orthogonalLoop=1;jettySize=auto;html=1;fontSize=12;" parent="1" source="aVFXKrY4T-fykUxstb7x-17" target="aVFXKrY4T-fykUxstb7x-53" edge="1">
          <mxGeometry relative="1" as="geometry">
            <mxPoint x="1390" y="290" as="targetPoint" />
          </mxGeometry>
        </mxCell>
        <mxCell id="aVFXKrY4T-fykUxstb7x-53" value="e.g. EffNet" style="swimlane;fontStyle=0;childLayout=stackLayout;horizontal=1;startSize=30;horizontalStack=0;resizeParent=1;resizeParentMax=0;resizeLast=0;collapsible=1;marginBottom=0;shadow=0;glass=0;sketch=0;fontSize=12;fillColor=none;" parent="1" vertex="1">
          <mxGeometry x="1300" y="210" width="238" height="90" as="geometry" />
        </mxCell>
        <mxCell id="aVFXKrY4T-fykUxstb7x-54" value="run DL image through network" style="text;strokeColor=none;fillColor=none;align=left;verticalAlign=middle;spacingLeft=4;spacingRight=4;overflow=hidden;points=[[0,0.5],[1,0.5]];portConstraint=eastwest;rotatable=0;shadow=0;glass=0;sketch=0;fontSize=12;" parent="aVFXKrY4T-fykUxstb7x-53" vertex="1">
          <mxGeometry y="30" width="238" height="30" as="geometry" />
        </mxCell>
        <mxCell id="aVFXKrY4T-fykUxstb7x-55" value="&gt;&gt; get labels" style="text;strokeColor=none;fillColor=none;align=left;verticalAlign=middle;spacingLeft=4;spacingRight=4;overflow=hidden;points=[[0,0.5],[1,0.5]];portConstraint=eastwest;rotatable=0;shadow=0;glass=0;sketch=0;fontSize=12;" parent="aVFXKrY4T-fykUxstb7x-53" vertex="1">
          <mxGeometry y="60" width="238" height="30" as="geometry" />
        </mxCell>
        <mxCell id="aVFXKrY4T-fykUxstb7x-56" style="edgeStyle=orthogonalEdgeStyle;rounded=0;orthogonalLoop=1;jettySize=auto;html=1;fontSize=12;entryX=0.959;entryY=0.7;entryDx=0;entryDy=0;entryPerimeter=0;" parent="1" source="aVFXKrY4T-fykUxstb7x-57" target="aVFXKrY4T-fykUxstb7x-31" edge="1">
          <mxGeometry relative="1" as="geometry">
            <mxPoint x="1330" y="980" as="targetPoint" />
          </mxGeometry>
        </mxCell>
        <mxCell id="aVFXKrY4T-fykUxstb7x-57" value="&lt;h1&gt;Topics, e.g.&lt;br&gt;&lt;/h1&gt;&lt;p&gt;User Item Collaborative Filtering Model, &lt;br&gt;&lt;/p&gt;&lt;p&gt;Clustering,&lt;br&gt;&lt;/p&gt;" style="text;html=1;strokeColor=none;fillColor=none;spacing=5;spacingTop=-20;whiteSpace=wrap;overflow=hidden;rounded=0;shadow=0;glass=0;sketch=0;fontSize=12;" parent="1" vertex="1">
          <mxGeometry x="1410" y="900" width="190" height="160" as="geometry" />
        </mxCell>
        <mxCell id="aVFXKrY4T-fykUxstb7x-58" style="edgeStyle=orthogonalEdgeStyle;rounded=0;orthogonalLoop=1;jettySize=auto;html=1;entryX=0.5;entryY=0;entryDx=0;entryDy=0;fontSize=12;" parent="1" source="aVFXKrY4T-fykUxstb7x-59" target="aVFXKrY4T-fykUxstb7x-57" edge="1">
          <mxGeometry relative="1" as="geometry" />
        </mxCell>
        <mxCell id="aVFXKrY4T-fykUxstb7x-59" value="Similar Users" style="swimlane;fontStyle=0;childLayout=stackLayout;horizontal=1;startSize=30;horizontalStack=0;resizeParent=1;resizeParentMax=0;resizeLast=0;collapsible=1;marginBottom=0;shadow=0;glass=0;sketch=0;fontSize=12;fillColor=none;" parent="1" vertex="1">
          <mxGeometry x="1450" y="760" width="185" height="100" as="geometry" />
        </mxCell>
        <mxCell id="aVFXKrY4T-fykUxstb7x-60" value="Once we have similar users, &#xa;&#xa;we can rank them" style="text;strokeColor=none;fillColor=none;align=left;verticalAlign=middle;spacingLeft=4;spacingRight=4;overflow=hidden;points=[[0,0.5],[1,0.5]];portConstraint=eastwest;rotatable=0;shadow=0;glass=0;sketch=0;fontSize=12;" parent="aVFXKrY4T-fykUxstb7x-59" vertex="1">
          <mxGeometry y="30" width="185" height="70" as="geometry" />
        </mxCell>
        <mxCell id="aVFXKrY4T-fykUxstb7x-61" value="" style="edgeStyle=orthogonalEdgeStyle;rounded=0;orthogonalLoop=1;jettySize=auto;html=1;fontSize=12;endArrow=none;" parent="1" source="aVFXKrY4T-fykUxstb7x-26" target="aVFXKrY4T-fykUxstb7x-59" edge="1">
          <mxGeometry relative="1" as="geometry">
            <mxPoint x="1562" y="655" as="sourcePoint" />
            <mxPoint x="1505" y="900" as="targetPoint" />
          </mxGeometry>
        </mxCell>
        <mxCell id="aVFXKrY4T-fykUxstb7x-62" style="edgeStyle=orthogonalEdgeStyle;rounded=0;orthogonalLoop=1;jettySize=auto;html=1;entryX=1;entryY=0.25;entryDx=0;entryDy=0;fontSize=12;startArrow=none;" parent="1" source="aVFXKrY4T-fykUxstb7x-63" target="aVFXKrY4T-fykUxstb7x-50" edge="1">
          <mxGeometry relative="1" as="geometry" />
        </mxCell>
        <mxCell id="aVFXKrY4T-fykUxstb7x-63" value="MVP version" style="text;html=1;strokeColor=none;fillColor=none;align=center;verticalAlign=middle;whiteSpace=wrap;rounded=0;shadow=0;glass=0;sketch=0;fontSize=12;" parent="1" vertex="1">
          <mxGeometry x="470" y="390" width="60" height="30" as="geometry" />
        </mxCell>
        <mxCell id="aVFXKrY4T-fykUxstb7x-64" style="edgeStyle=orthogonalEdgeStyle;rounded=0;orthogonalLoop=1;jettySize=auto;html=1;fontSize=12;entryX=0.5;entryY=1;entryDx=0;entryDy=0;" parent="1" source="aVFXKrY4T-fykUxstb7x-44" target="aVFXKrY4T-fykUxstb7x-65" edge="1">
          <mxGeometry relative="1" as="geometry">
            <mxPoint x="762" y="170" as="targetPoint" />
          </mxGeometry>
        </mxCell>
        <mxCell id="aVFXKrY4T-fykUxstb7x-65" value="&lt;div&gt;At least one post, at least one follower/following, tags,&lt;/div&gt;&lt;div&gt;at least one interaction (liking, ...)&lt;br&gt;&lt;/div&gt;" style="text;html=1;strokeColor=none;fillColor=none;align=center;verticalAlign=middle;whiteSpace=wrap;rounded=0;shadow=0;glass=0;sketch=0;fontSize=12;" parent="1" vertex="1">
          <mxGeometry x="499" y="170" width="302" height="30" as="geometry" />
        </mxCell>
        <mxCell id="aVFXKrY4T-fykUxstb7x-66" value="Persona creation, but helpful?" style="text;html=1;strokeColor=none;fillColor=none;align=center;verticalAlign=middle;whiteSpace=wrap;rounded=0;shadow=0;glass=0;sketch=0;fontSize=12;" parent="1" vertex="1">
          <mxGeometry x="1517" y="430" width="118" height="30" as="geometry" />
        </mxCell>
        <mxCell id="aVFXKrY4T-fykUxstb7x-67" style="edgeStyle=orthogonalEdgeStyle;rounded=0;orthogonalLoop=1;jettySize=auto;html=1;entryX=1;entryY=0.5;entryDx=0;entryDy=0;fontSize=12;" parent="1" source="aVFXKrY4T-fykUxstb7x-44" target="aVFXKrY4T-fykUxstb7x-63" edge="1">
          <mxGeometry relative="1" as="geometry" />
        </mxCell>
        <mxCell id="aVFXKrY4T-fykUxstb7x-68" value="" style="shape=flexArrow;endArrow=classic;html=1;rounded=0;fontSize=12;entryX=1;entryY=0;entryDx=0;entryDy=0;exitX=0;exitY=1;exitDx=0;exitDy=0;" parent="1" source="aVFXKrY4T-fykUxstb7x-69" target="aVFXKrY4T-fykUxstb7x-46" edge="1">
          <mxGeometry width="50" height="50" relative="1" as="geometry">
            <mxPoint x="500" y="60" as="sourcePoint" />
            <mxPoint x="420" y="85" as="targetPoint" />
          </mxGeometry>
        </mxCell>
        <mxCell id="aVFXKrY4T-fykUxstb7x-69" value="" style="rounded=0;whiteSpace=wrap;html=1;shadow=0;glass=0;sketch=0;fontSize=12;fillColor=none;" parent="1" vertex="1">
          <mxGeometry x="495" y="30" width="195" height="60" as="geometry" />
        </mxCell>
        <mxCell id="aVFXKrY4T-fykUxstb7x-70" style="edgeStyle=orthogonalEdgeStyle;rounded=0;orthogonalLoop=1;jettySize=auto;html=1;fontSize=12;" parent="1" source="aVFXKrY4T-fykUxstb7x-22" target="aVFXKrY4T-fykUxstb7x-72" edge="1">
          <mxGeometry relative="1" as="geometry">
            <mxPoint x="1250" y="610" as="targetPoint" />
          </mxGeometry>
        </mxCell>
        <mxCell id="aVFXKrY4T-fykUxstb7x-71" style="edgeStyle=orthogonalEdgeStyle;rounded=0;orthogonalLoop=1;jettySize=auto;html=1;fontSize=12;" parent="1" source="aVFXKrY4T-fykUxstb7x-72" edge="1">
          <mxGeometry relative="1" as="geometry">
            <mxPoint x="1320" y="680" as="targetPoint" />
          </mxGeometry>
        </mxCell>
        <mxCell id="aVFXKrY4T-fykUxstb7x-72" value="Identify separately" style="text;html=1;strokeColor=none;fillColor=none;align=center;verticalAlign=middle;whiteSpace=wrap;rounded=0;shadow=0;glass=0;sketch=0;fontSize=12;" parent="1" vertex="1">
          <mxGeometry x="1220" y="595" width="60" height="30" as="geometry" />
        </mxCell>
        <mxCell id="aVFXKrY4T-fykUxstb7x-73" style="edgeStyle=orthogonalEdgeStyle;rounded=0;orthogonalLoop=1;jettySize=auto;html=1;fontSize=12;" parent="1" source="aVFXKrY4T-fykUxstb7x-80" target="aVFXKrY4T-fykUxstb7x-74" edge="1">
          <mxGeometry relative="1" as="geometry">
            <mxPoint x="420" y="1080" as="targetPoint" />
          </mxGeometry>
        </mxCell>
        <mxCell id="aVFXKrY4T-fykUxstb7x-74" value="Rewarding system for learners on correct prediction" style="text;html=1;strokeColor=none;fillColor=none;align=center;verticalAlign=middle;whiteSpace=wrap;rounded=0;shadow=0;glass=0;sketch=0;fontSize=12;" parent="1" vertex="1">
          <mxGeometry x="272" y="1060" width="180" height="30" as="geometry" />
        </mxCell>
        <mxCell id="aVFXKrY4T-fykUxstb7x-75" value="" style="rounded=0;whiteSpace=wrap;html=1;shadow=0;glass=0;sketch=0;fontSize=12;fillColor=#f5f5f5;fontColor=#333333;strokeColor=#666666;opacity=70;" parent="1" vertex="1">
          <mxGeometry x="50" y="880" width="1010" height="270" as="geometry" />
        </mxCell>
        <mxCell id="aVFXKrY4T-fykUxstb7x-76" value="really nice, maybe v2?" style="text;html=1;strokeColor=none;fillColor=none;align=center;verticalAlign=middle;whiteSpace=wrap;rounded=0;shadow=0;glass=0;sketch=0;fontSize=12;opacity=70;" parent="1" vertex="1">
          <mxGeometry x="-30" y="880" width="310" height="30" as="geometry" />
        </mxCell>
        <mxCell id="aVFXKrY4T-fykUxstb7x-77" value="Metrics" style="swimlane;fontStyle=0;childLayout=stackLayout;horizontal=1;startSize=30;horizontalStack=0;resizeParent=1;resizeParentMax=0;resizeLast=0;collapsible=1;marginBottom=0;fontSize=12;" parent="1" vertex="1">
          <mxGeometry x="780" y="970" width="200" height="120" as="geometry" />
        </mxCell>
        <mxCell id="aVFXKrY4T-fykUxstb7x-78" value="Conversion" style="text;strokeColor=none;fillColor=none;align=left;verticalAlign=middle;spacingLeft=4;spacingRight=4;overflow=hidden;points=[[0,0.5],[1,0.5]];portConstraint=eastwest;rotatable=0;fontSize=12;" parent="aVFXKrY4T-fykUxstb7x-77" vertex="1">
          <mxGeometry y="30" width="200" height="30" as="geometry" />
        </mxCell>
        <mxCell id="aVFXKrY4T-fykUxstb7x-79" value="Score (Similarity)" style="text;strokeColor=#82b366;fillColor=#d5e8d4;align=left;verticalAlign=middle;spacingLeft=4;spacingRight=4;overflow=hidden;points=[[0,0.5],[1,0.5]];portConstraint=eastwest;rotatable=0;fontSize=12;" parent="aVFXKrY4T-fykUxstb7x-77" vertex="1">
          <mxGeometry y="60" width="200" height="30" as="geometry" />
        </mxCell>
        <mxCell id="aVFXKrY4T-fykUxstb7x-80" value="How can we justify predictions?" style="text;strokeColor=#b85450;fillColor=#f8cecc;align=left;verticalAlign=middle;spacingLeft=4;spacingRight=4;overflow=hidden;points=[[0,0.5],[1,0.5]];portConstraint=eastwest;rotatable=0;fontSize=12;" parent="aVFXKrY4T-fykUxstb7x-77" vertex="1">
          <mxGeometry y="90" width="200" height="30" as="geometry" />
        </mxCell>
        <mxCell id="aVFXKrY4T-fykUxstb7x-81" style="edgeStyle=orthogonalEdgeStyle;rounded=0;orthogonalLoop=1;jettySize=auto;html=1;exitX=0.5;exitY=1;exitDx=0;exitDy=0;fontSize=12;" parent="1" source="aVFXKrY4T-fykUxstb7x-35" target="aVFXKrY4T-fykUxstb7x-77" edge="1">
          <mxGeometry relative="1" as="geometry" />
        </mxCell>
        <mxCell id="aVFXKrY4T-fykUxstb7x-82" value="Aurora Bridge" style="text;html=1;strokeColor=none;fillColor=none;align=center;verticalAlign=middle;whiteSpace=wrap;rounded=0;shadow=0;glass=0;sketch=0;fontSize=12;opacity=70;" parent="1" vertex="1">
          <mxGeometry x="502" y="45" width="178" height="30" as="geometry" />
        </mxCell>
      </root>
    </mxGraphModel>
  </diagram>
  <diagram id="xtryJYVb3gYmYlLkNnNS" name="Christian">
    <mxGraphModel dx="1426" dy="820" grid="1" gridSize="10" guides="1" tooltips="1" connect="1" arrows="1" fold="1" page="1" pageScale="1" pageWidth="1654" pageHeight="1169" math="0" shadow="0">
      <root>
        <mxCell id="0" />
        <mxCell id="1" parent="0" />
        <mxCell id="sV0Od9kfYjNFo3drwbuv-1" style="edgeStyle=orthogonalEdgeStyle;rounded=0;orthogonalLoop=1;jettySize=auto;html=1;fontSize=12;" edge="1" parent="1" source="sV0Od9kfYjNFo3drwbuv-2" target="sV0Od9kfYjNFo3drwbuv-7">
          <mxGeometry relative="1" as="geometry">
            <mxPoint x="302" y="690" as="targetPoint" />
          </mxGeometry>
        </mxCell>
        <mxCell id="sV0Od9kfYjNFo3drwbuv-2" value="Trending Users" style="swimlane;fontStyle=0;childLayout=stackLayout;horizontal=1;startSize=30;horizontalStack=0;resizeParent=1;resizeParentMax=0;resizeLast=0;collapsible=1;marginBottom=0;fontSize=12;" vertex="1" parent="1">
          <mxGeometry x="102" y="520" width="400" height="130" as="geometry" />
        </mxCell>
        <mxCell id="sV0Od9kfYjNFo3drwbuv-3" value="High Follower/Following ratio (is followed more than being follower)" style="text;strokeColor=none;fillColor=none;align=left;verticalAlign=middle;spacingLeft=4;spacingRight=4;overflow=hidden;points=[[0,0.5],[1,0.5]];portConstraint=eastwest;rotatable=0;fontSize=12;" vertex="1" parent="sV0Od9kfYjNFo3drwbuv-2">
          <mxGeometry y="30" width="400" height="50" as="geometry" />
        </mxCell>
        <mxCell id="sV0Od9kfYjNFo3drwbuv-4" value="High value Posts (valued by community: likes, interaction by comments)" style="text;strokeColor=none;fillColor=none;align=left;verticalAlign=middle;spacingLeft=4;spacingRight=4;overflow=hidden;points=[[0,0.5],[1,0.5]];portConstraint=eastwest;rotatable=0;fontSize=12;" vertex="1" parent="sV0Od9kfYjNFo3drwbuv-2">
          <mxGeometry y="80" width="400" height="50" as="geometry" />
        </mxCell>
        <mxCell id="sV0Od9kfYjNFo3drwbuv-5" value="&lt;div&gt;&lt;b&gt;&lt;font style=&quot;font-size: 20px;&quot;&gt;NEAR Recommender System&lt;br&gt;&lt;/font&gt;&lt;/b&gt;&lt;/div&gt;&lt;div&gt;&lt;br&gt;&lt;/div&gt;&lt;div&gt;Starting with User Recommendation&lt;/div&gt;&lt;div&gt;&lt;br&gt;&lt;/div&gt;&lt;div&gt;Follow up system may include:&lt;/div&gt;&lt;div&gt;- Widgets (Apps),&lt;/div&gt;&lt;div&gt;- NFTs&lt;/div&gt;&lt;div&gt;&lt;br&gt;&lt;/div&gt;&lt;div&gt;Author(s): A Serrano, C Kuehner, D Herrmann&lt;br&gt;&lt;/div&gt;" style="text;html=1;strokeColor=none;fillColor=none;spacing=5;spacingTop=-20;whiteSpace=wrap;overflow=hidden;rounded=0;fontSize=12;" vertex="1" parent="1">
          <mxGeometry x="60" y="40" width="300" height="140" as="geometry" />
        </mxCell>
        <mxCell id="sV0Od9kfYjNFo3drwbuv-6" value="" style="endArrow=classic;html=1;rounded=0;fontSize=12;entryX=0.5;entryY=0;entryDx=0;entryDy=0;exitX=0.5;exitY=1;exitDx=0;exitDy=0;startArrow=none;" edge="1" parent="1" source="sV0Od9kfYjNFo3drwbuv-52" target="sV0Od9kfYjNFo3drwbuv-2">
          <mxGeometry width="50" height="50" relative="1" as="geometry">
            <mxPoint x="402" y="420" as="sourcePoint" />
            <mxPoint x="452" y="370" as="targetPoint" />
          </mxGeometry>
        </mxCell>
        <mxCell id="sV0Od9kfYjNFo3drwbuv-7" value="Trending Users by tags" style="swimlane;fontStyle=0;childLayout=stackLayout;horizontal=1;startSize=30;horizontalStack=0;resizeParent=1;resizeParentMax=0;resizeLast=0;collapsible=1;marginBottom=0;fontSize=12;" vertex="1" parent="1">
          <mxGeometry x="102" y="690" width="400" height="140" as="geometry" />
        </mxCell>
        <mxCell id="sV0Od9kfYjNFo3drwbuv-8" value="if tags are given and intersecting, &#xa;&#xa;we can recommend trending Users to newcomers" style="text;strokeColor=none;fillColor=none;align=left;verticalAlign=middle;spacingLeft=4;spacingRight=4;overflow=hidden;points=[[0,0.5],[1,0.5]];portConstraint=eastwest;rotatable=0;fontSize=12;" vertex="1" parent="sV0Od9kfYjNFo3drwbuv-7">
          <mxGeometry y="30" width="400" height="110" as="geometry" />
        </mxCell>
        <mxCell id="sV0Od9kfYjNFo3drwbuv-9" value="Trending Users by topics" style="swimlane;fontStyle=0;childLayout=stackLayout;horizontal=1;startSize=30;horizontalStack=0;resizeParent=1;resizeParentMax=0;resizeLast=0;collapsible=1;marginBottom=0;fontSize=12;" vertex="1" parent="1">
          <mxGeometry x="562" y="690" width="400" height="140" as="geometry" />
        </mxCell>
        <mxCell id="sV0Od9kfYjNFo3drwbuv-10" value="if history of interaction is given, &#xa;&#xa;we can recommend trending Users to active Users by tags&#xa;and topic of interest" style="text;strokeColor=none;fillColor=none;align=left;verticalAlign=middle;spacingLeft=4;spacingRight=4;overflow=hidden;points=[[0,0.5],[1,0.5]];portConstraint=eastwest;rotatable=0;fontSize=12;" vertex="1" parent="sV0Od9kfYjNFo3drwbuv-9">
          <mxGeometry y="30" width="400" height="110" as="geometry" />
        </mxCell>
        <mxCell id="sV0Od9kfYjNFo3drwbuv-11" style="edgeStyle=orthogonalEdgeStyle;rounded=0;orthogonalLoop=1;jettySize=auto;html=1;fontSize=12;" edge="1" parent="1" source="sV0Od9kfYjNFo3drwbuv-8" target="sV0Od9kfYjNFo3drwbuv-10">
          <mxGeometry relative="1" as="geometry" />
        </mxCell>
        <mxCell id="sV0Od9kfYjNFo3drwbuv-12" style="edgeStyle=orthogonalEdgeStyle;rounded=0;orthogonalLoop=1;jettySize=auto;html=1;fontSize=12;" edge="1" parent="1" source="sV0Od9kfYjNFo3drwbuv-46" target="sV0Od9kfYjNFo3drwbuv-9">
          <mxGeometry relative="1" as="geometry" />
        </mxCell>
        <mxCell id="sV0Od9kfYjNFo3drwbuv-16" value="Active Learning system" style="swimlane;fontStyle=0;childLayout=stackLayout;horizontal=1;startSize=30;horizontalStack=0;resizeParent=1;resizeParentMax=0;resizeLast=0;collapsible=1;marginBottom=0;fontSize=12;shadow=0;sketch=0;swimlaneLine=1;glass=0;" vertex="1" parent="1">
          <mxGeometry x="104" y="920" width="398" height="80" as="geometry" />
        </mxCell>
        <mxCell id="sV0Od9kfYjNFo3drwbuv-17" value="Competing agents to rate the conversion of &#xa;&#xa;recommended items/Users&#xa;" style="text;strokeColor=none;fillColor=none;align=left;verticalAlign=middle;spacingLeft=4;spacingRight=4;overflow=hidden;points=[[0,0.5],[1,0.5]];portConstraint=eastwest;rotatable=0;fontSize=12;" vertex="1" parent="sV0Od9kfYjNFo3drwbuv-16">
          <mxGeometry y="30" width="398" height="50" as="geometry" />
        </mxCell>
        <mxCell id="sV0Od9kfYjNFo3drwbuv-18" style="edgeStyle=orthogonalEdgeStyle;rounded=0;orthogonalLoop=1;jettySize=auto;html=1;fontSize=12;" edge="1" parent="sV0Od9kfYjNFo3drwbuv-16" source="sV0Od9kfYjNFo3drwbuv-16" target="sV0Od9kfYjNFo3drwbuv-17">
          <mxGeometry relative="1" as="geometry" />
        </mxCell>
        <mxCell id="sV0Od9kfYjNFo3drwbuv-19" value="Methodologies" style="swimlane;fontStyle=1;childLayout=stackLayout;horizontal=1;startSize=30;horizontalStack=0;resizeParent=1;resizeParentMax=0;resizeLast=0;collapsible=1;marginBottom=0;fontSize=12;" vertex="1" parent="1">
          <mxGeometry x="1002" y="340" width="340" height="180" as="geometry" />
        </mxCell>
        <mxCell id="sV0Od9kfYjNFo3drwbuv-20" value="Image Recognition for image posts/ NFTs in collection" style="text;strokeColor=none;fillColor=none;align=left;verticalAlign=middle;spacingLeft=4;spacingRight=4;overflow=hidden;points=[[0,0.5],[1,0.5]];portConstraint=eastwest;rotatable=0;fontSize=12;" vertex="1" parent="sV0Od9kfYjNFo3drwbuv-19">
          <mxGeometry y="30" width="340" height="30" as="geometry" />
        </mxCell>
        <mxCell id="M4WNTsJ38xqM_am-t0S8-5" style="edgeStyle=orthogonalEdgeStyle;rounded=0;orthogonalLoop=1;jettySize=auto;html=1;entryX=0;entryY=0.5;entryDx=0;entryDy=0;fontSize=12;" edge="1" parent="sV0Od9kfYjNFo3drwbuv-19" source="sV0Od9kfYjNFo3drwbuv-21" target="M4WNTsJ38xqM_am-t0S8-1">
          <mxGeometry relative="1" as="geometry" />
        </mxCell>
        <mxCell id="sV0Od9kfYjNFo3drwbuv-21" value="NLP Sentiment/Topic Analysis for written posts" style="text;strokeColor=none;fillColor=none;align=left;verticalAlign=middle;spacingLeft=4;spacingRight=4;overflow=hidden;points=[[0,0.5],[1,0.5]];portConstraint=eastwest;rotatable=0;fontSize=12;" vertex="1" parent="sV0Od9kfYjNFo3drwbuv-19">
          <mxGeometry y="60" width="340" height="30" as="geometry" />
        </mxCell>
        <mxCell id="sV0Od9kfYjNFo3drwbuv-22" value="Widget classification/Games for widgets" style="text;strokeColor=none;fillColor=none;align=left;verticalAlign=middle;spacingLeft=4;spacingRight=4;overflow=hidden;points=[[0,0.5],[1,0.5]];portConstraint=eastwest;rotatable=0;fontSize=12;" vertex="1" parent="sV0Od9kfYjNFo3drwbuv-19">
          <mxGeometry y="90" width="340" height="30" as="geometry" />
        </mxCell>
        <mxCell id="sV0Od9kfYjNFo3drwbuv-23" value="Second degree graph relations" style="text;strokeColor=none;fillColor=none;align=left;verticalAlign=middle;spacingLeft=4;spacingRight=4;overflow=hidden;points=[[0,0.5],[1,0.5]];portConstraint=eastwest;rotatable=0;fontSize=12;" vertex="1" parent="sV0Od9kfYjNFo3drwbuv-19">
          <mxGeometry y="120" width="340" height="30" as="geometry" />
        </mxCell>
        <mxCell id="M4WNTsJ38xqM_am-t0S8-1" value="Take into account past experience" style="text;strokeColor=none;fillColor=none;align=left;verticalAlign=middle;spacingLeft=4;spacingRight=4;overflow=hidden;points=[[0,0.5],[1,0.5]];portConstraint=eastwest;rotatable=0;fontSize=12;" vertex="1" parent="sV0Od9kfYjNFo3drwbuv-19">
          <mxGeometry y="150" width="340" height="30" as="geometry" />
        </mxCell>
        <mxCell id="sV0Od9kfYjNFo3drwbuv-24" style="edgeStyle=orthogonalEdgeStyle;rounded=0;orthogonalLoop=1;jettySize=auto;html=1;exitX=0.75;exitY=0;exitDx=0;exitDy=0;fontSize=12;" edge="1" parent="1" source="sV0Od9kfYjNFo3drwbuv-25" target="sV0Od9kfYjNFo3drwbuv-68">
          <mxGeometry relative="1" as="geometry">
            <mxPoint x="1600" y="470" as="targetPoint" />
          </mxGeometry>
        </mxCell>
        <mxCell id="sV0Od9kfYjNFo3drwbuv-25" value="Topic Modelling" style="swimlane;fontStyle=0;childLayout=stackLayout;horizontal=1;startSize=30;horizontalStack=0;resizeParent=1;resizeParentMax=0;resizeLast=0;collapsible=1;marginBottom=0;fontSize=12;" vertex="1" parent="1">
          <mxGeometry x="1390" y="530" width="220" height="90" as="geometry" />
        </mxCell>
        <mxCell id="sV0Od9kfYjNFo3drwbuv-26" value="matching/intersecting" style="text;strokeColor=none;fillColor=none;align=left;verticalAlign=middle;spacingLeft=4;spacingRight=4;overflow=hidden;points=[[0,0.5],[1,0.5]];portConstraint=eastwest;rotatable=0;fontSize=12;" vertex="1" parent="sV0Od9kfYjNFo3drwbuv-25">
          <mxGeometry y="30" width="220" height="30" as="geometry" />
        </mxCell>
        <mxCell id="sV0Od9kfYjNFo3drwbuv-27" value="recommending &quot;stronger&quot; profiles" style="text;strokeColor=none;fillColor=none;align=left;verticalAlign=middle;spacingLeft=4;spacingRight=4;overflow=hidden;points=[[0,0.5],[1,0.5]];portConstraint=eastwest;rotatable=0;fontSize=12;" vertex="1" parent="sV0Od9kfYjNFo3drwbuv-25">
          <mxGeometry y="60" width="220" height="30" as="geometry" />
        </mxCell>
        <mxCell id="sV0Od9kfYjNFo3drwbuv-28" style="edgeStyle=orthogonalEdgeStyle;rounded=0;orthogonalLoop=1;jettySize=auto;html=1;fontSize=12;" edge="1" parent="1" source="sV0Od9kfYjNFo3drwbuv-20" target="sV0Od9kfYjNFo3drwbuv-25">
          <mxGeometry relative="1" as="geometry" />
        </mxCell>
        <mxCell id="sV0Od9kfYjNFo3drwbuv-29" style="edgeStyle=orthogonalEdgeStyle;rounded=0;orthogonalLoop=1;jettySize=auto;html=1;entryX=0.5;entryY=0;entryDx=0;entryDy=0;fontSize=12;" edge="1" parent="1" source="sV0Od9kfYjNFo3drwbuv-21" target="sV0Od9kfYjNFo3drwbuv-25">
          <mxGeometry relative="1" as="geometry" />
        </mxCell>
        <mxCell id="sV0Od9kfYjNFo3drwbuv-30" style="edgeStyle=orthogonalEdgeStyle;rounded=0;orthogonalLoop=1;jettySize=auto;html=1;entryX=0.5;entryY=0;entryDx=0;entryDy=0;fontSize=12;" edge="1" parent="1" source="sV0Od9kfYjNFo3drwbuv-22" target="sV0Od9kfYjNFo3drwbuv-25">
          <mxGeometry relative="1" as="geometry" />
        </mxCell>
        <mxCell id="sV0Od9kfYjNFo3drwbuv-31" value="" style="ellipse;whiteSpace=wrap;html=1;aspect=fixed;fontSize=12;fillColor=#99FF33;strokeColor=none;sketch=1;" vertex="1" parent="1">
          <mxGeometry x="1204.6171428571429" y="790" width="170" height="170" as="geometry" />
        </mxCell>
        <mxCell id="sV0Od9kfYjNFo3drwbuv-32" value="" style="ellipse;whiteSpace=wrap;html=1;aspect=fixed;fontSize=12;fillColor=#FF6666;strokeColor=none;sketch=1;" vertex="1" parent="1">
          <mxGeometry x="1100" y="790" width="170" height="170" as="geometry" />
        </mxCell>
        <mxCell id="sV0Od9kfYjNFo3drwbuv-33" value="updating on new data" style="text;strokeColor=none;fillColor=none;align=left;verticalAlign=middle;spacingLeft=4;spacingRight=4;overflow=hidden;points=[[0,0.5],[1,0.5]];portConstraint=eastwest;rotatable=0;fontSize=12;" vertex="1" parent="1">
          <mxGeometry x="1020" y="650" width="220" height="30" as="geometry" />
        </mxCell>
        <mxCell id="sV0Od9kfYjNFo3drwbuv-34" value="" style="curved=1;endArrow=classic;html=1;rounded=0;fontSize=12;exitX=0.75;exitY=1;exitDx=0;exitDy=0;entryX=0.462;entryY=1.1;entryDx=0;entryDy=0;entryPerimeter=0;" edge="1" parent="1" source="sV0Od9kfYjNFo3drwbuv-46" target="M4WNTsJ38xqM_am-t0S8-1">
          <mxGeometry width="50" height="50" relative="1" as="geometry">
            <mxPoint x="1070" y="790" as="sourcePoint" />
            <mxPoint x="1165.88" y="522.01" as="targetPoint" />
            <Array as="points">
              <mxPoint x="1100" y="770" />
              <mxPoint x="1210" y="640" />
              <mxPoint x="920" y="640" />
              <mxPoint x="1250" y="780" />
            </Array>
          </mxGeometry>
        </mxCell>
        <mxCell id="sV0Od9kfYjNFo3drwbuv-35" value="" style="curved=1;endArrow=classic;html=1;rounded=0;fontSize=12;exitX=0.523;exitY=0.967;exitDx=0;exitDy=0;exitPerimeter=0;entryX=1;entryY=0.5;entryDx=0;entryDy=0;" edge="1" parent="1" source="sV0Od9kfYjNFo3drwbuv-27" target="sV0Od9kfYjNFo3drwbuv-10">
          <mxGeometry width="50" height="50" relative="1" as="geometry">
            <mxPoint x="1070" y="790" as="sourcePoint" />
            <mxPoint x="1120" y="740" as="targetPoint" />
            <Array as="points">
              <mxPoint x="1300" y="970" />
              <mxPoint x="1070" y="740" />
            </Array>
          </mxGeometry>
        </mxCell>
        <mxCell id="sV0Od9kfYjNFo3drwbuv-37" value="" style="ellipse;whiteSpace=wrap;html=1;aspect=fixed;sketch=1;fontSize=12;fillColor=#0000FF;" vertex="1" parent="1">
          <mxGeometry x="1200" y="835" width="80" height="80" as="geometry" />
        </mxCell>
        <mxCell id="sV0Od9kfYjNFo3drwbuv-38" style="edgeStyle=orthogonalEdgeStyle;rounded=0;orthogonalLoop=1;jettySize=auto;html=1;exitX=0;exitY=0.5;exitDx=0;exitDy=0;entryX=1;entryY=0.25;entryDx=0;entryDy=0;fontSize=12;startArrow=none;" edge="1" parent="1" source="sV0Od9kfYjNFo3drwbuv-50" target="sV0Od9kfYjNFo3drwbuv-16">
          <mxGeometry relative="1" as="geometry" />
        </mxCell>
        <mxCell id="sV0Od9kfYjNFo3drwbuv-39" style="edgeStyle=orthogonalEdgeStyle;rounded=0;orthogonalLoop=1;jettySize=auto;html=1;fontSize=12;" edge="1" parent="1" source="sV0Od9kfYjNFo3drwbuv-23" target="sV0Od9kfYjNFo3drwbuv-40">
          <mxGeometry relative="1" as="geometry">
            <mxPoint x="980" y="150" as="targetPoint" />
            <Array as="points">
              <mxPoint x="960" y="475" />
              <mxPoint x="960" y="300" />
              <mxPoint x="1090" y="300" />
            </Array>
          </mxGeometry>
        </mxCell>
        <mxCell id="sV0Od9kfYjNFo3drwbuv-40" value="Graph Relations" style="swimlane;fontStyle=0;childLayout=stackLayout;horizontal=1;startSize=30;horizontalStack=0;resizeParent=1;resizeParentMax=0;resizeLast=0;collapsible=1;marginBottom=0;shadow=0;glass=0;sketch=0;fontSize=12;fillColor=none;" vertex="1" parent="1">
          <mxGeometry x="960" y="140" width="288" height="120" as="geometry" />
        </mxCell>
        <mxCell id="sV0Od9kfYjNFo3drwbuv-41" value="because you followed X, see [Y1, Y2, ..., Yn]" style="text;strokeColor=none;fillColor=none;align=left;verticalAlign=middle;spacingLeft=4;spacingRight=4;overflow=hidden;points=[[0,0.5],[1,0.5]];portConstraint=eastwest;rotatable=0;shadow=0;glass=0;sketch=0;fontSize=12;" vertex="1" parent="sV0Od9kfYjNFo3drwbuv-40">
          <mxGeometry y="30" width="288" height="30" as="geometry" />
        </mxCell>
        <mxCell id="sV0Od9kfYjNFo3drwbuv-42" value="Collaborative Filtering" style="text;strokeColor=none;fillColor=none;align=left;verticalAlign=middle;spacingLeft=4;spacingRight=4;overflow=hidden;points=[[0,0.5],[1,0.5]];portConstraint=eastwest;rotatable=0;shadow=0;glass=0;sketch=0;fontSize=12;" vertex="1" parent="sV0Od9kfYjNFo3drwbuv-40">
          <mxGeometry y="60" width="288" height="30" as="geometry" />
        </mxCell>
        <mxCell id="sV0Od9kfYjNFo3drwbuv-43" value="Graph based Relation Modelling" style="text;strokeColor=none;fillColor=none;align=left;verticalAlign=middle;spacingLeft=4;spacingRight=4;overflow=hidden;points=[[0,0.5],[1,0.5]];portConstraint=eastwest;rotatable=0;shadow=0;glass=0;sketch=0;fontSize=12;" vertex="1" parent="sV0Od9kfYjNFo3drwbuv-40">
          <mxGeometry y="90" width="288" height="30" as="geometry" />
        </mxCell>
        <mxCell id="sV0Od9kfYjNFo3drwbuv-44" value="" style="group" vertex="1" connectable="0" parent="1">
          <mxGeometry x="652" y="260" width="230" height="340" as="geometry" />
        </mxCell>
        <mxCell id="sV0Od9kfYjNFo3drwbuv-45" value="" style="rounded=0;whiteSpace=wrap;html=1;fontSize=12;" vertex="1" parent="sV0Od9kfYjNFo3drwbuv-44">
          <mxGeometry width="230" height="340" as="geometry" />
        </mxCell>
        <mxCell id="sV0Od9kfYjNFo3drwbuv-46" value="&lt;h1&gt;Active Users&lt;br&gt;&lt;/h1&gt;&lt;p&gt;Activity based recommendations depend on given User data and their interaction:&lt;/p&gt;&lt;p&gt;- username &lt;br&gt;&lt;/p&gt;&lt;p&gt;- tags&lt;/p&gt;&lt;p&gt;- description&lt;/p&gt;&lt;p&gt;- posts, including image recognition (topic)&lt;br&gt;&lt;/p&gt;&lt;p&gt;- comments&lt;/p&gt;&lt;p&gt;- NFT collection (topics)&lt;/p&gt;&lt;p&gt;- followers/following&lt;br&gt;&lt;/p&gt;The sparser the data given, the more generic the recommendation" style="text;html=1;strokeColor=none;fillColor=none;spacing=5;spacingTop=-20;whiteSpace=wrap;overflow=hidden;rounded=0;fontSize=12;" vertex="1" parent="sV0Od9kfYjNFo3drwbuv-44">
          <mxGeometry width="220" height="340" as="geometry" />
        </mxCell>
        <mxCell id="sV0Od9kfYjNFo3drwbuv-47" value="" style="group" vertex="1" connectable="0" parent="1">
          <mxGeometry x="102" y="200" width="230" height="240" as="geometry" />
        </mxCell>
        <mxCell id="sV0Od9kfYjNFo3drwbuv-48" value="" style="rounded=0;whiteSpace=wrap;html=1;fontSize=12;" vertex="1" parent="sV0Od9kfYjNFo3drwbuv-47">
          <mxGeometry width="230" height="240" as="geometry" />
        </mxCell>
        <mxCell id="sV0Od9kfYjNFo3drwbuv-49" value="&lt;h1&gt;Onboarding&lt;/h1&gt;&lt;p&gt;Cold recommendations depend on given User data:&lt;/p&gt;&lt;p&gt;- username &lt;br&gt;&lt;/p&gt;&lt;p&gt;- tags&lt;/p&gt;&lt;p&gt;- description&lt;/p&gt;&lt;p&gt;&lt;br&gt;&lt;/p&gt;The sparser the data given, the more generic the recommendation" style="text;html=1;strokeColor=none;fillColor=none;spacing=5;spacingTop=-20;whiteSpace=wrap;overflow=hidden;rounded=0;fontSize=12;" vertex="1" parent="sV0Od9kfYjNFo3drwbuv-47">
          <mxGeometry width="220" height="240" as="geometry" />
        </mxCell>
        <mxCell id="sV0Od9kfYjNFo3drwbuv-50" value="active learning" style="text;html=1;strokeColor=none;fillColor=none;align=center;verticalAlign=middle;whiteSpace=wrap;rounded=0;shadow=0;glass=0;sketch=0;fontSize=12;" vertex="1" parent="1">
          <mxGeometry x="620" y="980" width="60" height="30" as="geometry" />
        </mxCell>
        <mxCell id="sV0Od9kfYjNFo3drwbuv-51" value="" style="edgeStyle=orthogonalEdgeStyle;rounded=0;orthogonalLoop=1;jettySize=auto;html=1;exitX=0;exitY=0.5;exitDx=0;exitDy=0;entryX=1;entryY=0.25;entryDx=0;entryDy=0;fontSize=12;endArrow=none;" edge="1" parent="1" source="sV0Od9kfYjNFo3drwbuv-14" target="sV0Od9kfYjNFo3drwbuv-50">
          <mxGeometry relative="1" as="geometry">
            <mxPoint x="780" y="1015" as="sourcePoint" />
            <mxPoint x="502" y="940" as="targetPoint" />
          </mxGeometry>
        </mxCell>
        <mxCell id="sV0Od9kfYjNFo3drwbuv-52" value="Global Recommendation" style="text;html=1;strokeColor=none;fillColor=none;align=center;verticalAlign=middle;whiteSpace=wrap;rounded=0;shadow=0;glass=0;sketch=0;fontSize=12;" vertex="1" parent="1">
          <mxGeometry x="272" y="460" width="60" height="30" as="geometry" />
        </mxCell>
        <mxCell id="sV0Od9kfYjNFo3drwbuv-53" value="" style="endArrow=none;html=1;rounded=0;fontSize=12;entryX=0.5;entryY=0;entryDx=0;entryDy=0;exitX=0.5;exitY=1;exitDx=0;exitDy=0;" edge="1" parent="1" source="sV0Od9kfYjNFo3drwbuv-49" target="sV0Od9kfYjNFo3drwbuv-52">
          <mxGeometry width="50" height="50" relative="1" as="geometry">
            <mxPoint x="212" y="440" as="sourcePoint" />
            <mxPoint x="302" y="520" as="targetPoint" />
          </mxGeometry>
        </mxCell>
        <mxCell id="sV0Od9kfYjNFo3drwbuv-54" style="edgeStyle=orthogonalEdgeStyle;rounded=0;orthogonalLoop=1;jettySize=auto;html=1;fontSize=12;" edge="1" parent="1" source="sV0Od9kfYjNFo3drwbuv-20" target="sV0Od9kfYjNFo3drwbuv-55">
          <mxGeometry relative="1" as="geometry">
            <mxPoint x="1390" y="290" as="targetPoint" />
          </mxGeometry>
        </mxCell>
        <mxCell id="sV0Od9kfYjNFo3drwbuv-55" value="e.g. EffNet" style="swimlane;fontStyle=0;childLayout=stackLayout;horizontal=1;startSize=30;horizontalStack=0;resizeParent=1;resizeParentMax=0;resizeLast=0;collapsible=1;marginBottom=0;shadow=0;glass=0;sketch=0;fontSize=12;fillColor=none;" vertex="1" parent="1">
          <mxGeometry x="1300" y="210" width="238" height="90" as="geometry" />
        </mxCell>
        <mxCell id="sV0Od9kfYjNFo3drwbuv-56" value="run DL image through network" style="text;strokeColor=none;fillColor=none;align=left;verticalAlign=middle;spacingLeft=4;spacingRight=4;overflow=hidden;points=[[0,0.5],[1,0.5]];portConstraint=eastwest;rotatable=0;shadow=0;glass=0;sketch=0;fontSize=12;" vertex="1" parent="sV0Od9kfYjNFo3drwbuv-55">
          <mxGeometry y="30" width="238" height="30" as="geometry" />
        </mxCell>
        <mxCell id="sV0Od9kfYjNFo3drwbuv-57" value="&gt;&gt; get labels" style="text;strokeColor=none;fillColor=none;align=left;verticalAlign=middle;spacingLeft=4;spacingRight=4;overflow=hidden;points=[[0,0.5],[1,0.5]];portConstraint=eastwest;rotatable=0;shadow=0;glass=0;sketch=0;fontSize=12;" vertex="1" parent="sV0Od9kfYjNFo3drwbuv-55">
          <mxGeometry y="60" width="238" height="30" as="geometry" />
        </mxCell>
        <mxCell id="sV0Od9kfYjNFo3drwbuv-58" style="edgeStyle=orthogonalEdgeStyle;rounded=0;orthogonalLoop=1;jettySize=auto;html=1;fontSize=12;entryX=0.959;entryY=0.7;entryDx=0;entryDy=0;entryPerimeter=0;" edge="1" parent="1" source="sV0Od9kfYjNFo3drwbuv-59" target="sV0Od9kfYjNFo3drwbuv-32">
          <mxGeometry relative="1" as="geometry">
            <mxPoint x="1330" y="980" as="targetPoint" />
          </mxGeometry>
        </mxCell>
        <mxCell id="sV0Od9kfYjNFo3drwbuv-59" value="&lt;h1&gt;Topics, e.g.&lt;br&gt;&lt;/h1&gt;&lt;p&gt;User Item Collaborative Filtering Model, &lt;br&gt;&lt;/p&gt;&lt;p&gt;Clustering,&lt;br&gt;&lt;/p&gt;" style="text;html=1;strokeColor=none;fillColor=none;spacing=5;spacingTop=-20;whiteSpace=wrap;overflow=hidden;rounded=0;shadow=0;glass=0;sketch=0;fontSize=12;" vertex="1" parent="1">
          <mxGeometry x="1410" y="900" width="190" height="160" as="geometry" />
        </mxCell>
        <mxCell id="sV0Od9kfYjNFo3drwbuv-60" style="edgeStyle=orthogonalEdgeStyle;rounded=0;orthogonalLoop=1;jettySize=auto;html=1;entryX=0.5;entryY=0;entryDx=0;entryDy=0;fontSize=12;" edge="1" parent="1" source="sV0Od9kfYjNFo3drwbuv-61" target="sV0Od9kfYjNFo3drwbuv-59">
          <mxGeometry relative="1" as="geometry" />
        </mxCell>
        <mxCell id="sV0Od9kfYjNFo3drwbuv-61" value="Similar Users" style="swimlane;fontStyle=0;childLayout=stackLayout;horizontal=1;startSize=30;horizontalStack=0;resizeParent=1;resizeParentMax=0;resizeLast=0;collapsible=1;marginBottom=0;shadow=0;glass=0;sketch=0;fontSize=12;fillColor=none;" vertex="1" parent="1">
          <mxGeometry x="1450" y="760" width="185" height="100" as="geometry" />
        </mxCell>
        <mxCell id="sV0Od9kfYjNFo3drwbuv-62" value="Once we have similar users, &#xa;&#xa;we can rank them" style="text;strokeColor=none;fillColor=none;align=left;verticalAlign=middle;spacingLeft=4;spacingRight=4;overflow=hidden;points=[[0,0.5],[1,0.5]];portConstraint=eastwest;rotatable=0;shadow=0;glass=0;sketch=0;fontSize=12;" vertex="1" parent="sV0Od9kfYjNFo3drwbuv-61">
          <mxGeometry y="30" width="185" height="70" as="geometry" />
        </mxCell>
        <mxCell id="sV0Od9kfYjNFo3drwbuv-63" value="" style="edgeStyle=orthogonalEdgeStyle;rounded=0;orthogonalLoop=1;jettySize=auto;html=1;fontSize=12;endArrow=none;" edge="1" parent="1" source="sV0Od9kfYjNFo3drwbuv-27" target="sV0Od9kfYjNFo3drwbuv-61">
          <mxGeometry relative="1" as="geometry">
            <mxPoint x="1562" y="655" as="sourcePoint" />
            <mxPoint x="1505" y="900" as="targetPoint" />
          </mxGeometry>
        </mxCell>
        <mxCell id="sV0Od9kfYjNFo3drwbuv-64" style="edgeStyle=orthogonalEdgeStyle;rounded=0;orthogonalLoop=1;jettySize=auto;html=1;entryX=1;entryY=0.25;entryDx=0;entryDy=0;fontSize=12;startArrow=none;" edge="1" parent="1" source="sV0Od9kfYjNFo3drwbuv-65" target="sV0Od9kfYjNFo3drwbuv-52">
          <mxGeometry relative="1" as="geometry" />
        </mxCell>
        <mxCell id="sV0Od9kfYjNFo3drwbuv-65" value="MVP version" style="text;html=1;strokeColor=none;fillColor=none;align=center;verticalAlign=middle;whiteSpace=wrap;rounded=0;shadow=0;glass=0;sketch=0;fontSize=12;" vertex="1" parent="1">
          <mxGeometry x="470" y="390" width="60" height="30" as="geometry" />
        </mxCell>
        <mxCell id="sV0Od9kfYjNFo3drwbuv-66" style="edgeStyle=orthogonalEdgeStyle;rounded=0;orthogonalLoop=1;jettySize=auto;html=1;fontSize=12;entryX=0.5;entryY=1;entryDx=0;entryDy=0;" edge="1" parent="1" source="sV0Od9kfYjNFo3drwbuv-46" target="sV0Od9kfYjNFo3drwbuv-67">
          <mxGeometry relative="1" as="geometry">
            <mxPoint x="762" y="170" as="targetPoint" />
          </mxGeometry>
        </mxCell>
        <mxCell id="sV0Od9kfYjNFo3drwbuv-67" value="&lt;div&gt;At least one post, at least one follower/following, tags,&lt;/div&gt;&lt;div&gt;at least one interaction (liking, ...)&lt;br&gt;&lt;/div&gt;" style="text;html=1;strokeColor=none;fillColor=none;align=center;verticalAlign=middle;whiteSpace=wrap;rounded=0;shadow=0;glass=0;sketch=0;fontSize=12;" vertex="1" parent="1">
          <mxGeometry x="499" y="170" width="302" height="30" as="geometry" />
        </mxCell>
        <mxCell id="sV0Od9kfYjNFo3drwbuv-68" value="Persona creation, but helpful?" style="text;html=1;strokeColor=none;fillColor=none;align=center;verticalAlign=middle;whiteSpace=wrap;rounded=0;shadow=0;glass=0;sketch=0;fontSize=12;" vertex="1" parent="1">
          <mxGeometry x="1517" y="430" width="118" height="30" as="geometry" />
        </mxCell>
        <mxCell id="sV0Od9kfYjNFo3drwbuv-69" style="edgeStyle=orthogonalEdgeStyle;rounded=0;orthogonalLoop=1;jettySize=auto;html=1;entryX=1;entryY=0.5;entryDx=0;entryDy=0;fontSize=12;" edge="1" parent="1" source="sV0Od9kfYjNFo3drwbuv-46" target="sV0Od9kfYjNFo3drwbuv-65">
          <mxGeometry relative="1" as="geometry" />
        </mxCell>
        <mxCell id="AIE2rXqpqe3Mz_Df86MA-1" value="" style="shape=flexArrow;endArrow=classic;html=1;rounded=0;fontSize=12;entryX=1;entryY=0;entryDx=0;entryDy=0;exitX=0;exitY=0.5;exitDx=0;exitDy=0;" edge="1" parent="1" source="AIE2rXqpqe3Mz_Df86MA-2" target="sV0Od9kfYjNFo3drwbuv-48">
          <mxGeometry width="50" height="50" relative="1" as="geometry">
            <mxPoint x="500" y="60" as="sourcePoint" />
            <mxPoint x="420" y="85" as="targetPoint" />
          </mxGeometry>
        </mxCell>
        <mxCell id="AIE2rXqpqe3Mz_Df86MA-2" value="" style="rounded=0;whiteSpace=wrap;html=1;shadow=0;glass=0;sketch=0;fontSize=12;fillColor=none;" vertex="1" parent="1">
          <mxGeometry x="495" y="30" width="195" height="60" as="geometry" />
        </mxCell>
        <mxCell id="M4WNTsJ38xqM_am-t0S8-2" style="edgeStyle=orthogonalEdgeStyle;rounded=0;orthogonalLoop=1;jettySize=auto;html=1;fontSize=12;" edge="1" parent="1" source="M4WNTsJ38xqM_am-t0S8-1" target="M4WNTsJ38xqM_am-t0S8-3">
          <mxGeometry relative="1" as="geometry">
            <mxPoint x="1250" y="610" as="targetPoint" />
          </mxGeometry>
        </mxCell>
        <mxCell id="M4WNTsJ38xqM_am-t0S8-4" style="edgeStyle=orthogonalEdgeStyle;rounded=0;orthogonalLoop=1;jettySize=auto;html=1;fontSize=12;" edge="1" parent="1" source="M4WNTsJ38xqM_am-t0S8-3">
          <mxGeometry relative="1" as="geometry">
            <mxPoint x="1320" y="680" as="targetPoint" />
          </mxGeometry>
        </mxCell>
        <mxCell id="M4WNTsJ38xqM_am-t0S8-3" value="Identify separately" style="text;html=1;strokeColor=none;fillColor=none;align=center;verticalAlign=middle;whiteSpace=wrap;rounded=0;shadow=0;glass=0;sketch=0;fontSize=12;" vertex="1" parent="1">
          <mxGeometry x="1220" y="595" width="60" height="30" as="geometry" />
        </mxCell>
        <mxCell id="M4WNTsJ38xqM_am-t0S8-6" style="edgeStyle=orthogonalEdgeStyle;rounded=0;orthogonalLoop=1;jettySize=auto;html=1;fontSize=12;" edge="1" parent="1" source="AIE2rXqpqe3Mz_Df86MA-3" target="M4WNTsJ38xqM_am-t0S8-7">
          <mxGeometry relative="1" as="geometry">
            <mxPoint x="420" y="1080" as="targetPoint" />
          </mxGeometry>
        </mxCell>
        <mxCell id="M4WNTsJ38xqM_am-t0S8-7" value="Rewarding system for learners on correct prediction" style="text;html=1;strokeColor=none;fillColor=none;align=center;verticalAlign=middle;whiteSpace=wrap;rounded=0;shadow=0;glass=0;sketch=0;fontSize=12;" vertex="1" parent="1">
          <mxGeometry x="272" y="1060" width="180" height="30" as="geometry" />
        </mxCell>
        <mxCell id="M4WNTsJ38xqM_am-t0S8-9" value="" style="rounded=0;whiteSpace=wrap;html=1;shadow=0;glass=0;sketch=0;fontSize=12;fillColor=#f5f5f5;fontColor=#333333;strokeColor=#666666;opacity=70;" vertex="1" parent="1">
          <mxGeometry x="50" y="880" width="1010" height="270" as="geometry" />
        </mxCell>
        <mxCell id="M4WNTsJ38xqM_am-t0S8-10" value="really nice, maybe v2?" style="text;html=1;strokeColor=none;fillColor=none;align=center;verticalAlign=middle;whiteSpace=wrap;rounded=0;shadow=0;glass=0;sketch=0;fontSize=12;opacity=70;" vertex="1" parent="1">
          <mxGeometry x="50" y="880" width="310" height="30" as="geometry" />
        </mxCell>
        <mxCell id="sV0Od9kfYjNFo3drwbuv-13" value="Metrics" style="swimlane;fontStyle=0;childLayout=stackLayout;horizontal=1;startSize=30;horizontalStack=0;resizeParent=1;resizeParentMax=0;resizeLast=0;collapsible=1;marginBottom=0;fontSize=12;" vertex="1" parent="1">
          <mxGeometry x="780" y="970" width="200" height="120" as="geometry" />
        </mxCell>
        <mxCell id="sV0Od9kfYjNFo3drwbuv-14" value="Conversion" style="text;strokeColor=none;fillColor=none;align=left;verticalAlign=middle;spacingLeft=4;spacingRight=4;overflow=hidden;points=[[0,0.5],[1,0.5]];portConstraint=eastwest;rotatable=0;fontSize=12;" vertex="1" parent="sV0Od9kfYjNFo3drwbuv-13">
          <mxGeometry y="30" width="200" height="30" as="geometry" />
        </mxCell>
        <mxCell id="sV0Od9kfYjNFo3drwbuv-15" value="Score (Similarity)" style="text;strokeColor=none;fillColor=none;align=left;verticalAlign=middle;spacingLeft=4;spacingRight=4;overflow=hidden;points=[[0,0.5],[1,0.5]];portConstraint=eastwest;rotatable=0;fontSize=12;" vertex="1" parent="sV0Od9kfYjNFo3drwbuv-13">
          <mxGeometry y="60" width="200" height="30" as="geometry" />
        </mxCell>
        <mxCell id="AIE2rXqpqe3Mz_Df86MA-3" value="How can we justify predictions?" style="text;strokeColor=#b85450;fillColor=#f8cecc;align=left;verticalAlign=middle;spacingLeft=4;spacingRight=4;overflow=hidden;points=[[0,0.5],[1,0.5]];portConstraint=eastwest;rotatable=0;fontSize=12;" vertex="1" parent="sV0Od9kfYjNFo3drwbuv-13">
          <mxGeometry y="90" width="200" height="30" as="geometry" />
        </mxCell>
        <mxCell id="sV0Od9kfYjNFo3drwbuv-36" style="edgeStyle=orthogonalEdgeStyle;rounded=0;orthogonalLoop=1;jettySize=auto;html=1;exitX=0.5;exitY=1;exitDx=0;exitDy=0;fontSize=12;" edge="1" parent="1" source="sV0Od9kfYjNFo3drwbuv-37" target="sV0Od9kfYjNFo3drwbuv-13">
          <mxGeometry relative="1" as="geometry" />
        </mxCell>
        <mxCell id="M4WNTsJ38xqM_am-t0S8-11" value="Aurora Bridge" style="text;html=1;strokeColor=none;fillColor=none;align=center;verticalAlign=middle;whiteSpace=wrap;rounded=0;shadow=0;glass=0;sketch=0;fontSize=12;opacity=70;" vertex="1" parent="1">
          <mxGeometry x="502" y="45" width="178" height="30" as="geometry" />
        </mxCell>
      </root>
    </mxGraphModel>
  </diagram>
  <diagram id="Y1BaTuGtomzA1obQS4AQ" name="Page-3">
    <mxGraphModel dx="1666" dy="820" grid="1" gridSize="10" guides="1" tooltips="1" connect="1" arrows="1" fold="1" page="1" pageScale="1" pageWidth="1654" pageHeight="1169" math="0" shadow="0">
      <root>
        <mxCell id="0" />
        <mxCell id="1" parent="0" />
      </root>
    </mxGraphModel>
  </diagram>
</mxfile>
